# xmcd
#
# Track frame offsets: 
#        150
#        19113
#        46043
#        65868
#        92973
#        103778
#        147400
#        176175
#        200585
#        212120
#        233250
#        251168
#        263855
#        283050
#        298445
#
# Disc length: 4254 seconds
#
# Revision: 0
# Processed by: cddbd v1.5.1PL2 Copyright (c) Steve Scherf et al.
# Submitted via: ExactAudioCopy v0.95a5
#
DISCID=f3109c0f
DTITLE=邓丽君 - 邓丽君演唱会珍藏集
DYEAR=2006
DGENRE=Blues
TTITLE0=爱像一首歌
TTITLE1=千言万语 我怎能离开你
TTITLE2=路边的野花不要采
TTITLE3=襟裳岬（日文版） 丝丝小雨
TTITLE4=谢谢你常记得我
TTITLE5=叹十声 天涯歌女 四季歌
TTITLE6=MEDLEY:LAST DANCE HOT STUFF/FAME
TTITLE7=CAN'T HELP FALLING IN LOVE WITH YOU
TTITLE8=采槟榔
TTITLE9=星（中日版）
TTITLE10=你怎么说
TTITLE11=FINALE
TTITLE12=何日君再来
TTITLE13=月亮代表我的心
TTITLE14=再见！我的爱人
EXTD=
EXTT0=
EXTT1=
EXTT2=
EXTT3=
EXTT4=
EXTT5=
EXTT6=
EXTT7=
EXTT8=
EXTT9=
EXTT10=
EXTT11=
EXTT12=
EXTT13=
EXTT14=
PLAYORDER=
